<svg id="Grupo_2457" data-name="Grupo 2457" xmlns="http://www.w3.org/2000/svg" xmlns:xlink="http://www.w3.org/1999/xlink" width="161.497" height="36.181" viewBox="0 0 161.497 36.181">
  <defs>
    <clipPath id="clip-path">
      <rect id="Rectángulo_1545" data-name="Rectángulo 1545" width="161.497" height="36.181" fill="#161616"/>
    </clipPath>
  </defs>
  <g id="Grupo_2456" data-name="Grupo 2456" transform="translate(0 0)" clip-path="url(#clip-path)">
    <path id="Trazado_2193" data-name="Trazado 2193" d="M98.529,44.4H98.5c-.1,0-.193.024-.313.024-.53,0-.94-.288-.94-1.445,0-.94,0-2.049,0-3.278,0-3.3.022-7.205.046-9.229v-.1a1.753,1.753,0,0,0-1.928-2c-.216,0-.555.024-.795.024a.715.715,0,0,0-.747.724.62.62,0,0,0,.674.626h.049a2.985,2.985,0,0,1,.385-.025c.964,0,.964.409.965,2.048,0,1.4-.024,3.109-.024,4.338,0,.313-.024.434-.072.434s-.121-.121-.241-.289a4.842,4.842,0,0,0-3.809-1.735,5.4,5.4,0,0,0-5.469,5.713c0,3.494,2.339,5.759,5.472,5.758a5.017,5.017,0,0,0,4.024-2.025c.048-.048.073-.072.1-.072.072,0,.1.1.12.24a1.976,1.976,0,0,0,2.195,1.711c.313,0,.963-.072.963-.747a.641.641,0,0,0-.627-.7m-6.724.267c-2.41,0-4.1-1.687-4.1-4.434,0-2.772,1.662-4.458,4.1-4.459,2.289,0,4.073,1.758,4.074,4.457A4.12,4.12,0,0,1,91.8,44.671" transform="translate(-42.145 -13.861)" fill="#161616"/>
    <path id="Trazado_2194" data-name="Trazado 2194" d="M125.277,50.25c-.964-.338-1.133-.915-1.133-2.675,0-.916.047-2.169.12-2.964a6.566,6.566,0,0,0,.024-.675c0-2.7-1.52-3.687-3.761-3.687-2.072,0-4.1,1.037-4.1,1.953a.652.652,0,0,0,.674.65.671.671,0,0,0,.506-.241,3.8,3.8,0,0,1,2.82-1.157c1.952,0,2.506,1.035,2.506,2.361,0,.121-.024.265-.024.386,0,.168-.1.241-.386.29a38.625,38.625,0,0,0-4.458.989,3.219,3.219,0,0,0-2.578,2.989c0,1.664,1.471,3.326,3.9,3.326a4.455,4.455,0,0,0,3.663-1.857.129.129,0,0,1,.1-.073c.048,0,.072.048.1.121a2.05,2.05,0,0,0,1.785,1.541.652.652,0,0,0,.65-.674.613.613,0,0,0-.41-.6M122.891,46.3c0,3.711-2.289,4.217-3.518,4.218-1.614,0-2.578-1.012-2.578-2.024,0-1.688,2-2.17,5.783-2.773h.072c.168,0,.241.072.241.265Z" transform="translate(-56.412 -19.66)" fill="#161616"/>
    <path id="Trazado_2195" data-name="Trazado 2195" d="M144.676,47.2h-.1c-.24.024-.458.049-.674.049-1.88,0-1.928-1.277-1.929-3.157,0-1.784.072-4.265.072-5.182,0-.289,0-.337.386-.337h2.12a.627.627,0,0,0,.675-.651.62.62,0,0,0-.675-.626H142.41c-.313,0-.362,0-.362-.265,0,0,.048-1.928.048-2.627a.7.7,0,1,0-1.4-.047v.6c0,.844-.024,2-.024,2.1,0,.216-.047.24-.264.24h-1.4a.64.64,0,1,0,0,1.278h1.422c.169,0,.24.024.24.264v.386c0,1.181-.047,4.121-.046,5.663,0,1.061,0,3.688,3.086,3.687.963,0,1.542-.121,1.542-.748a.6.6,0,0,0-.58-.626" transform="translate(-67.569 -16.439)" fill="#161616"/>
    <path id="Trazado_2196" data-name="Trazado 2196" d="M166.165,50.25c-.964-.338-1.133-.915-1.133-2.675,0-.916.047-2.169.12-2.964a6.57,6.57,0,0,0,.024-.675c0-2.7-1.52-3.687-3.761-3.687-2.072,0-4.1,1.037-4.1,1.953a.652.652,0,0,0,.674.65.671.671,0,0,0,.506-.241,3.8,3.8,0,0,1,2.82-1.157c1.952,0,2.506,1.036,2.506,2.361,0,.121-.024.266-.024.386,0,.169-.1.241-.386.29a38.622,38.622,0,0,0-4.458.989,3.219,3.219,0,0,0-2.578,2.989c0,1.664,1.471,3.326,3.9,3.326a4.455,4.455,0,0,0,3.663-1.857.129.129,0,0,1,.1-.073c.047,0,.072.048.1.121a2.05,2.05,0,0,0,1.785,1.541.652.652,0,0,0,.65-.674.613.613,0,0,0-.41-.6M163.779,46.3c0,3.711-2.289,4.217-3.518,4.218-1.614,0-2.578-1.012-2.578-2.024,0-1.688,2-2.17,5.783-2.773h.072c.168,0,.241.072.241.265Z" transform="translate(-76.383 -19.66)" fill="#161616"/>
    <path id="Trazado_2197" data-name="Trazado 2197" d="M186.16,45.675c-.747-.385-1.9-.867-2.578-1.18A1.856,1.856,0,0,1,182.4,42.9c0-.795.7-1.543,1.952-1.543.145,0,2.289,0,2.289,1.927a.619.619,0,0,0,.675.627.593.593,0,0,0,.6-.578v-.049c-.024-.554-.024-.916-.024-1.253,0-.361,0-.7.024-1.205v-.023a.563.563,0,0,0-.6-.579.542.542,0,0,0-.553.385c-.024.073,0,.289-.121.289a.178.178,0,0,1-.145-.048,3.88,3.88,0,0,0-2.121-.65c-2.145,0-3.277,1.374-3.277,2.772a2.914,2.914,0,0,0,1.953,2.675c2.8,1.157,3.857,1.734,3.857,3.011,0,1.157-1.181,1.856-2.409,1.856-1.374,0-2.579-.794-2.579-1.59,0-.169.049-.289.049-.458a.619.619,0,0,0-.651-.651.633.633,0,0,0-.674.627V48.5c.024.578.048.939.048,1.3s-.024.723-.047,1.253V51.1a.581.581,0,0,0,.626.578c.289,0,.578-.073.578-.675,0-.073.025-.121.073-.121a.3.3,0,0,1,.169.1,3.78,3.78,0,0,0,2.41.794c2.747,0,3.806-1.784,3.806-3.11a3.451,3.451,0,0,0-2.146-2.988" transform="translate(-88.234 -19.638)" fill="#161616"/>
    <path id="Trazado_2198" data-name="Trazado 2198" d="M210.547,44.944c-.144,0-.265.024-.362.024a.892.892,0,0,1-.7-.289c-4.363-4-4.989-4.577-4.989-4.746,0-.073.049-.145.193-.241,1.18-.772,3.036-2.025,4.457-2.99a1.151,1.151,0,0,1,.6-.217c.338,0,.145.024.482.024h.024a.634.634,0,0,0,.674-.626.587.587,0,0,0-.7-.627c-.627.024-1.205.025-1.735.025-.555,0-1.086,0-1.688-.025h-.048a.613.613,0,0,0-.65.628c0,.578.577.578,1.012.578.12,0,.169.024.169.073,0,.024-.024.073-.1.121-3.807,2.627-3.9,2.651-4.168,2.651a.362.362,0,0,1-.41-.385s.047-5.109.046-8.218c0-.53-.169-1.807-2.145-1.806-.843,0-1.277.072-1.277.7a.657.657,0,0,0,.675.674h.554c.6.024.795.289.795.964,0,1.3.025,2.916.026,4.6,0,2.94-.023,6.193-.07,8.724a.38.38,0,0,1-.41.41c-.386,0-.434-.024-.723-.024h-.024a.663.663,0,0,0-.7.675.623.623,0,0,0,.724.626c.554-.024,1.132-.048,1.734-.048.627,0,1.253.023,1.88.048h.024a.653.653,0,1,0,0-1.3H203.7a6.1,6.1,0,0,1-.674.024.368.368,0,0,1-.41-.409c-.024-1.157-.024-1.928-.025-2.506,0-1.253.024-1.47.386-1.47a.862.862,0,0,1,.723.289c.747.77,2.724,2.6,4,3.855a.182.182,0,0,1,.048.1c0,.024,0,.169-.627.169a.564.564,0,0,0-.65.627.612.612,0,0,0,.65.626h.048c.555-.024,1.085-.048,1.615-.048s1.109.024,1.735.047h.024a.643.643,0,0,0,.675-.675.6.6,0,0,0-.675-.626" transform="translate(-97.319 -14.114)" fill="#161616"/>
    <path id="Trazado_2199" data-name="Trazado 2199" d="M235.685,48.733a.683.683,0,0,0-.482.217,4.319,4.319,0,0,1-3.494,1.591,3.937,3.937,0,0,1-4.049-4.241c0-.338.049-.433.289-.434.531,0,2.578.024,4.387.023.891,0,1.711,0,2.265-.024,1.229-.049,1.759-.724,1.759-1.616a4.49,4.49,0,0,0-4.749-3.951,5.51,5.51,0,0,0-5.372,5.833,5.385,5.385,0,0,0,5.448,5.686c3.037,0,4.723-1.833,4.723-2.387a.736.736,0,0,0-.723-.7m-4.05-7.229a3.027,3.027,0,0,1,3.3,2.506c0,.386-.217.651-.8.676-.674.024-2.024.024-3.278.025-2.8,0-3.013,0-3.013-.241a3.9,3.9,0,0,1,3.783-2.965" transform="translate(-110.504 -19.684)" fill="#161616"/>
    <path id="Trazado_2200" data-name="Trazado 2200" d="M255.987,47.2h-.1c-.24.024-.458.049-.675.049-1.879,0-1.928-1.278-1.929-3.157,0-1.783.072-4.266.072-5.181,0-.289,0-.337.386-.337h2.12a.64.64,0,1,0,0-1.278H253.72c-.313,0-.362,0-.363-.265,0,0,.049-1.928.049-2.627a.7.7,0,1,0-1.4-.048v.6c0,.844-.025,2-.025,2.1,0,.217-.047.241-.264.241h-1.4a.64.64,0,1,0,0,1.277h1.422c.169,0,.24.024.24.265v.386c0,1.181-.048,4.121-.047,5.663,0,1.06,0,3.687,3.085,3.686.964,0,1.542-.121,1.542-.747a.6.6,0,0,0-.579-.627" transform="translate(-121.939 -16.44)" fill="#161616"/>
    <path id="Trazado_2201" data-name="Trazado 2201" d="M276.948,48.688a.758.758,0,0,0-.627.362,3.791,3.791,0,0,1-3.084,1.4,4.223,4.223,0,0,1-4.194-4.481,4.259,4.259,0,0,1,4.193-4.555,3.165,3.165,0,0,1,2.458.987c.289.337.217.627.241,1.134a.638.638,0,0,0,.675.578.621.621,0,0,0,.7-.6v-.049c-.023-.553-.023-.939-.023-1.3,0-.386,0-.747.023-1.253v-.049a.622.622,0,0,0-.7-.6c-.265,0-.553.12-.577.41-.025.12-.049.265-.121.265-.049,0-.073-.024-.121-.049a5.452,5.452,0,0,0-8.145,5.184,5.477,5.477,0,0,0,5.665,5.686c2.6,0,4.409-1.615,4.409-2.314a.772.772,0,0,0-.771-.747" transform="translate(-130.73 -19.615)" fill="#161616"/>
    <path id="Trazado_2202" data-name="Trazado 2202" d="M302.547,44.921h-.024c-.338,0-.314.024-.675.024-.289,0-.41-.169-.41-.434,0-1.9-.025-4.675-.049-5.687a3.817,3.817,0,0,0-4.026-3.856,4.512,4.512,0,0,0-3.566,1.64c-.049.048-.073.073-.1.073s-.048-.049-.048-.121c0-.337.022-2.506.022-4.458q0-.723,0-1.374a1.681,1.681,0,0,0-1.638-1.831,5.2,5.2,0,0,0-.6-.048c-1.036,0-1.228.313-1.228.723a.657.657,0,0,0,.674.675h.025a4.682,4.682,0,0,1,.529-.024c.627.024.82.361.82.987,0,1.446.025,3.4.026,5.447,0,2.892-.023,5.928-.047,7.881a.362.362,0,0,1-.385.41c-.386,0-.458-.025-.771-.025h-.024a.663.663,0,0,0-.7.676.623.623,0,0,0,.723.626c.555-.024,1.157-.048,1.76-.049s1.252.024,1.879.048h.024a.653.653,0,1,0-.025-1.3,6.1,6.1,0,0,1-.674.024.368.368,0,0,1-.41-.41c0-1.133-.024-2.193-.025-3.085,0-.867.024-1.59.024-2.048a3.52,3.52,0,0,1,3.589-3.158,2.7,2.7,0,0,1,2.773,2.842c.024.458.049,1.59.049,2.844,0,.892-.023,1.807-.023,2.6a.374.374,0,0,1-.386.41c-.386,0-.41-.024-.723-.024h-.024a.662.662,0,0,0-.7.675.623.623,0,0,0,.723.627c.555-.025,1.133-.049,1.735-.049.627,0,1.253.024,1.88.048h.024a.652.652,0,1,0,0-1.3" transform="translate(-141.749 -14.091)" fill="#161616"/>
    <path id="Trazado_2203" data-name="Trazado 2203" d="M26.853,34.843V22.668a2.413,2.413,0,0,0-2.41-2.41H2.41A2.413,2.413,0,0,0,0,22.668V38.7a2.412,2.412,0,0,0,2.41,2.41H12.815L8.89,45.057a.6.6,0,1,0,.848.843l3.689-3.712L17.115,45.9a.6.6,0,0,0,.848-.843l-3.924-3.949h10.4a2.412,2.412,0,0,0,2.41-2.41V36.288L33.8,41a.6.6,0,1,0,.671-.989Zm-1.2-.811L21.57,31.259a.6.6,0,1,0-.671.989l4.759,3.229V38.7a1.215,1.215,0,0,1-1.214,1.214H2.41A1.216,1.216,0,0,1,1.2,38.7V22.668A1.216,1.216,0,0,1,2.41,21.454H24.443a1.215,1.215,0,0,1,1.214,1.214Z" transform="translate(0 -9.895)" fill="#161616"/>
    <path id="Trazado_2204" data-name="Trazado 2204" d="M186.625,6.184a3.007,3.007,0,0,0,.278-1.353,2.5,2.5,0,0,0-1.039-2.219,5.283,5.283,0,0,0-2.987-.71q-.58,0-1.27.047a7.971,7.971,0,0,0-1.259.173v8.82h1.626V7.787h.813a8.1,8.1,0,0,0,1.742-.168A3.737,3.737,0,0,0,185.82,7.1a2.33,2.33,0,0,0,.8-.913m-2.058-.113a4,4,0,0,1-1.8.328h-.789V3.356c.266-.026.607-.038,1.014-.038a5.061,5.061,0,0,1,.87.071,2.226,2.226,0,0,1,.7.238,1.22,1.22,0,0,1,.464.464,1.478,1.478,0,0,1,.168.736,1.274,1.274,0,0,1-.627,1.241Z" transform="translate(-88.09 -0.924)" fill="#161616"/>
    <path id="Trazado_2205" data-name="Trazado 2205" d="M200.3,7.025a2.923,2.923,0,0,0-1.026-.717,3.36,3.36,0,0,0-1.31-.251,3.291,3.291,0,0,0-1.3.251,2.987,2.987,0,0,0-1.026.717,3.275,3.275,0,0,0-.676,1.117,4.2,4.2,0,0,0-.238,1.45,4.261,4.261,0,0,0,.238,1.458,3.333,3.333,0,0,0,.665,1.127,2.972,2.972,0,0,0,1.014.721,3.259,3.259,0,0,0,1.316.258,3.314,3.314,0,0,0,1.322-.258,2.95,2.95,0,0,0,1.027-.721,3.237,3.237,0,0,0,.658-1.127,4.362,4.362,0,0,0,.232-1.458,4.168,4.168,0,0,0-.239-1.45,3.312,3.312,0,0,0-.656-1.117m-1.127,4.18a1.522,1.522,0,0,1-2.413,0,2.686,2.686,0,0,1-.432-1.613A2.63,2.63,0,0,1,196.758,8a1.533,1.533,0,0,1,2.413,0,2.626,2.626,0,0,1,.433,1.592,2.68,2.68,0,0,1-.435,1.613Z" transform="translate(-95.11 -2.958)" fill="#161616"/>
    <path id="Trazado_2206" data-name="Trazado 2206" d="M209.825,10.151q.284.865.564,1.626t.543,1.353h1.282q.338-.955.676-2.029t.638-2.212q.3,1.136.651,2.212t.69,2.029h1.267q.271-.592.556-1.353t.564-1.626q.284-.863.564-1.819t.556-1.949h-1.613q-.113.542-.272,1.168t-.331,1.277q-.173.652-.356,1.271c-.121.412-.238.789-.35,1.135q-.194-.593-.379-1.227t-.347-1.265q-.163-.632-.3-1.232t-.258-1.127h-1.185q-.113.529-.265,1.127T212.4,8.744q-.168.632-.355,1.265t-.382,1.227c-.12-.345-.241-.722-.363-1.135s-.237-.836-.35-1.271-.22-.861-.324-1.277-.195-.807-.272-1.168H208.7q.27.993.556,1.949t.571,1.819" transform="translate(-101.937 -3.118)" fill="#161616"/>
    <path id="Trazado_2207" data-name="Trazado 2207" d="M232.681,13.138a5.869,5.869,0,0,0,.684-.038c.226-.026.432-.057.627-.1q.261-.051.515-.128a2.446,2.446,0,0,0,.355-.137l-.206-1.277a4.225,4.225,0,0,1-.743.219,4.813,4.813,0,0,1-1.038.1,2.182,2.182,0,0,1-1.477-.445,1.78,1.78,0,0,1-.574-1.259h4.452c.008-.086.015-.182.02-.29s.006-.2.006-.291a3.736,3.736,0,0,0-.781-2.58,2.775,2.775,0,0,0-2.174-.866,3.115,3.115,0,0,0-1.161.225,2.914,2.914,0,0,0-1.006.676,3.286,3.286,0,0,0-.7,1.116,4.229,4.229,0,0,0-.263,1.561,4.5,4.5,0,0,0,.206,1.4,3.011,3.011,0,0,0,.632,1.11,2.888,2.888,0,0,0,1.084.736,4.153,4.153,0,0,0,1.546.258m-1.7-4.787a1.625,1.625,0,0,1,.29-.5,1.434,1.434,0,0,1,.459-.353,1.393,1.393,0,0,1,.632-.137,1.346,1.346,0,0,1,.6.123,1.246,1.246,0,0,1,.426.338,1.471,1.471,0,0,1,.265.5,2.085,2.085,0,0,1,.09.612h-2.9a2.769,2.769,0,0,1,.141-.585Z" transform="translate(-111.957 -2.955)" fill="#161616"/>
    <path id="Trazado_2208" data-name="Trazado 2208" d="M247.75,6.168c-.138-.021-.276-.038-.412-.053a3.467,3.467,0,0,0-.362-.019,7,7,0,0,0-1.5.149,8.546,8.546,0,0,0-1.127.316v6.424h1.561V7.575a3.633,3.633,0,0,1,.406-.091,3.237,3.237,0,0,1,.549-.052,3.925,3.925,0,0,1,.789.071,5.111,5.111,0,0,1,.537.135l.271-1.316c-.078-.026-.181-.053-.31-.083s-.26-.045-.4-.071" transform="translate(-119.349 -2.977)" fill="#161616"/>
    <path id="Trazado_2209" data-name="Trazado 2209" d="M254.614,12.137a2.894,2.894,0,0,0,1.085.736,4.144,4.144,0,0,0,1.548.263,6,6,0,0,0,.684-.038c.225-.026.431-.058.627-.1a5.3,5.3,0,0,0,.515-.128,2.494,2.494,0,0,0,.355-.137l-.207-1.277a4.3,4.3,0,0,1-.741.22,4.858,4.858,0,0,1-1.039.1,2.184,2.184,0,0,1-1.477-.445,1.782,1.782,0,0,1-.574-1.259h4.452c.008-.085.015-.182.019-.29s.007-.2.007-.291a3.737,3.737,0,0,0-.781-2.58,2.775,2.775,0,0,0-2.174-.866,3.1,3.1,0,0,0-1.161.226,2.893,2.893,0,0,0-1.007.676,3.279,3.279,0,0,0-.7,1.116,4.251,4.251,0,0,0-.263,1.561,4.531,4.531,0,0,0,.206,1.4,3.015,3.015,0,0,0,.63,1.1m.929-3.788a1.624,1.624,0,0,1,.29-.5,1.435,1.435,0,0,1,.459-.353,1.393,1.393,0,0,1,.632-.137,1.35,1.35,0,0,1,.6.123,1.237,1.237,0,0,1,.425.338,1.471,1.471,0,0,1,.265.5,2.085,2.085,0,0,1,.09.612h-2.9a2.689,2.689,0,0,1,.142-.583Z" transform="translate(-123.956 -2.954)" fill="#161616"/>
    <path id="Trazado_2210" data-name="Trazado 2210" d="M271.611,10.187a9.035,9.035,0,0,0,1.476-.113,9.105,9.105,0,0,0,1.167-.258V.011l-1.561.258V3.507a3.894,3.894,0,0,0-.645-.258,2.925,2.925,0,0,0-.865-.113,3.062,3.062,0,0,0-1.277.253,2.609,2.609,0,0,0-.942.716,3.187,3.187,0,0,0-.587,1.116,4.945,4.945,0,0,0-.2,1.452,4.235,4.235,0,0,0,.238,1.465,3.094,3.094,0,0,0,.684,1.111,2.973,2.973,0,0,0,1.077.7,3.929,3.929,0,0,0,1.433.237m-1.44-5.135a1.4,1.4,0,0,1,1.246-.581,2.151,2.151,0,0,1,.728.122,2.481,2.481,0,0,1,.549.265V8.73a4.231,4.231,0,0,1-.433.071,5.537,5.537,0,0,1-.638.032,1.67,1.67,0,0,1-1.353-.586,2.448,2.448,0,0,1-.491-1.62,2.775,2.775,0,0,1,.391-1.576Z" transform="translate(-130.99 -0.005)" fill="#161616"/>
    <path id="Trazado_2211" data-name="Trazado 2211" d="M292.463,10.182a3.927,3.927,0,0,0,1.434-.245,2.937,2.937,0,0,0,1.076-.71,3.149,3.149,0,0,0,.684-1.116,4.239,4.239,0,0,0,.238-1.465,4.9,4.9,0,0,0-.2-1.44,3.31,3.31,0,0,0-.574-1.116,2.492,2.492,0,0,0-.936-.716,3.356,3.356,0,0,0-2.141-.14,3.634,3.634,0,0,0-.664.258V0l-1.562.258V9.807a9.2,9.2,0,0,0,1.168.258,9.034,9.034,0,0,0,1.476.117M291.38,4.84a2.2,2.2,0,0,1,.548-.257,2.218,2.218,0,0,1,.729-.113,1.4,1.4,0,0,1,1.24.581,2.771,2.771,0,0,1,.394,1.578,2.446,2.446,0,0,1-.486,1.607,1.667,1.667,0,0,1-1.352.586,5.446,5.446,0,0,1-.639-.032c-.145-.016-.289-.04-.432-.071Z" transform="translate(-141.56 0)" fill="#161616"/>
    <path id="Trazado_2212" data-name="Trazado 2212" d="M303.813,14.228a2.546,2.546,0,0,1-.921-.181l-.283,1.251a2.342,2.342,0,0,0,.537.168,3.6,3.6,0,0,0,1.672-.044,2.161,2.161,0,0,0,.749-.394,2.978,2.978,0,0,0,.608-.684,6.984,6.984,0,0,0,.528-.994,49.2,49.2,0,0,0,2.422-6.968h-1.614q-.3,1.214-.656,2.51t-.77,2.446q-.246-.556-.493-1.2t-.466-1.3q-.219-.652-.408-1.285T304.4,6.381h-1.665a34.119,34.119,0,0,0,1.21,3.561q.677,1.678,1.419,3.1a2.373,2.373,0,0,1-.6.9,1.43,1.43,0,0,1-.951.286" transform="translate(-147.808 -3.117)" fill="#161616"/>
  </g>
</svg>
