<?xml version="1.0" encoding="utf-8"?>
<!-- Generator: Adobe Illustrator 26.4.1, SVG Export Plug-In . SVG Version: 6.00 Build 0)  -->
<svg version="1.1" id="Capa_1" xmlns="http://www.w3.org/2000/svg" xmlns:xlink="http://www.w3.org/1999/xlink" x="0px" y="0px"
	 viewBox="0 0 40.8 40.8" style="enable-background:new 0 0 40.8 40.8;" xml:space="preserve">
<style type="text/css">
	.st0{clip-path:url(#SVGID_00000010268444063506568420000007094194609279914147_);}
	.st1{clip-path:url(#SVGID_00000150796036268790538300000007467467797050972603_);}
	.st2{clip-path:url(#SVGID_00000101062098238247065560000014058807396199090315_);}
	.st3{fill:#C8C8C8;}
</style>
<g>
	<defs>
		<rect id="SVGID_1_" x="1" y="5.4" width="39" height="30.5"/>
	</defs>
	<clipPath id="SVGID_00000057826990314088331020000007320441655194700732_">
		<use xlink:href="#SVGID_1_"  style="overflow:visible;"/>
	</clipPath>
	<g id="Grupo_3063" style="clip-path:url(#SVGID_00000057826990314088331020000007320441655194700732_);">
		<g id="Grupo_3062">
			<g>
				<defs>
					<rect id="SVGID_00000168799205501892181910000007877984227621270406_" x="1" y="5.4" width="39" height="30.5"/>
				</defs>
				<clipPath id="SVGID_00000106131712998535783950000015187018756707531435_">
					<use xlink:href="#SVGID_00000168799205501892181910000007877984227621270406_"  style="overflow:visible;"/>
				</clipPath>
				<g id="Grupo_3061" style="clip-path:url(#SVGID_00000106131712998535783950000015187018756707531435_);">
					<g id="Grupo_3060">
						<g id="Grupo_3059">
							<g>
								<defs>
									<rect id="SVGID_00000020371585847805857220000010555030390473826731_" x="1" y="5.4" width="39" height="30.5"/>
								</defs>
								<clipPath id="SVGID_00000155857775879055968540000015076461379554503042_">
									<use xlink:href="#SVGID_00000020371585847805857220000010555030390473826731_"  style="overflow:visible;"/>
								</clipPath>
								<g id="Grupo_3058" style="clip-path:url(#SVGID_00000155857775879055968540000015076461379554503042_);">
									<path class="st3" d="M21.8,36.7l-0.3-0.3l-0.4-0.1l0,0l-0.3,0l-0.4-0.1l-0.9-0.9l-0.6-1.5l-0.1,0L18.4,34l-0.5-0.1
										l-0.3-0.4l-0.4-0.1l-0.5-0.4l-0.2,0.2l-0.7,0.6l-0.3,0l-0.4-0.1l-0.4-0.3l-0.2-0.4l0.1-0.5l0.1-0.2l-0.3-0.9l0-0.2l0.1-0.3
										l0.4-0.5l0.5-0.1l0.3,0.1l0.2-0.2L15.8,30l0-0.3l0-0.1l0-0.2l-0.1-0.1l0-0.3l0,0l0,0l0,0l-0.1-0.3l-0.1-0.1l-0.2-0.5
										l0.1-0.4l0.1-0.2l0,0l0,0l0,0l0.4-0.6l0.4,0.3l0.2,0l0.2-0.4l0.2-0.3l0.3,0.1l0-0.1l0.2-0.4l0-0.1l0.1-0.4l0.3-0.9
										l-0.4,0.2l-0.5-0.2l-0.1,0l0,0.2l-0.2,0.3l-0.2,0.2l-0.3,0l-0.6-0.2l-0.8-0.5L13.9,24l-0.2,0l-0.8-0.4l-0.3-0.3l-0.1-0.3
										l-0.3-0.4L12,22.3l0.4-0.5l0.7,0.2l0.2-0.1l-0.1-0.4l0.2-0.3l-0.6-1.4l0.1-0.3l0.1-0.1V19l0.3-0.2l0-0.1l0-0.1l-0.2-0.3
										l-0.6-1.1l0.1-0.3l0.2-0.3l0.5,0.3l-0.4-0.4l0.2-0.3l0.4-0.2l0.1,0l0.1,0l0.1,0l0.6-0.2l0.2-0.6l0.2-0.5l-0.3-0.9l0.3-0.4
										l0.2-0.1l0.3-0.6l0.1-0.1l0.3-0.6l0.3,0.2l0.4-0.5l0-0.1l0.3-0.3l0-0.2l0-0.2l0-0.5l0.1-0.3l-0.1-0.4l0.1-0.3l0,0l-0.3-0.4
										l-0.1-0.3l0.1-0.7l0.2-0.3l0.4-0.3l0.2,0.1l0,0L18,7.4l0.3-0.3L18.7,7l0.5-0.4l0.2,0.3l0.3-0.3l0.4-0.1l0.2,0l0.5-0.1
										L21,6.5l0.1,0L21.5,6l0.2-0.1l0.3,0.1l0.3-0.6l0.1-0.8L24,5.6l0.1,0l0.4,0.1l0,0.2L25,6.1l0.1,0.1l0.4,0.5L26,6.9l0.7,0.5
										l0.4,0l0.2,0.1l0.2,0l0.3,0.3l0.5-0.1h0.2L28.9,8l0,0.4l0.2,0.1l0.4,0.1l0.3,0.1L30,9.2l0.1,0.7l0.6,0.1l0,0l0.4-0.1
										l0.4,0.1l0.3,0.2l0.2,0l0.4,0.2l0.1,0l0.4-0.2l0.9,0.2l0.1,0l0-0.9l0.5,0.1l0.4-0.2l0.2-0.1l0.3,0.1l0.2,0.2l0.1,0l0.4,0
										l0.2,0.1l0.3,0l0.7,1l0.5,0.4l0.5-0.1l0.7,0.4l0.6,0.4l0.7,0.3l0.5,0.3l-0.9,0.8l-0.3,0.1l0,0l0.2,0.4l0.6,0.4l0.3,0.5
										l0,0.2l0,0.2l0,0.2l0,0.1l-0.1,0.3l0.3,1l0.1,0.6l-1.1,0l-0.7,2.5l-2.5,2.9l-3,2.2l-5.5,1.9L27.6,27L27,27.7l-0.2,0.2
										l-0.2,0.4l0.1,0.4L26.6,29l-0.4,0.3l-0.5,0.2l-0.1-0.2l0,0l0,0.4l-0.1,0.1l0,0.3l-0.1,0.3l-0.3,0.3l0,0.5l-0.3,0.4
										l-0.1,0.3l-0.4,1l0.2,0.1l-0.1,0.5l-0.1,0.3l0,0.1l-0.1,0.3l-0.4,0.3l-0.6,0.3l0.1,0.5L23,35.6l-0.3,0.2l-0.2,0.3l-0.3,0.3
										L21.8,36.7z M21.1,35.2l0.2,0l0.2,0.1l0.2,0l0.1-0.2l0.2-0.3l0-0.3l0.2-0.4l0.4-0.4l0.6-0.3l0.1-0.2L23.1,33l0-0.4l0.6-1.3
										l0.1-0.5l0.6-0.9l0-0.2v-0.4l0.1,0l0.1-0.4l0.1-0.4l0-0.3l0.2-0.3l0.4-0.2l0.2,0l0.2,0l0.2-0.2l0.3-0.5l0.2-0.1l0.5-0.7
										l0.6-0.5l5.5-1.9l2.6-2l2.4-2.8l0.8-2.9l0.4-0.5l0.1,0.1l0-0.2l0-0.1l0-0.2l0.1-0.3l-0.1-0.1l-0.4-0.2l-0.3-0.6l-0.1-0.4
										l-0.2-0.1l0,0l-0.2,0l-0.3-0.4l-0.1-0.4l0.1-0.4l-0.3-0.1l-0.3-0.1l-0.9-0.7L36,11.3L35.8,11h-0.3l-0.3-0.2l-0.4-0.1l0,0
										l0.1,0.5l-0.4,0.3l-0.2,0.1l-0.7,0.1l-0.3-0.1l-1.4-0.1L31,11.1l-0.3,0.1l-0.4-0.1l-0.9-0.3l-0.2-0.2L29,10l0-0.4l-0.4-0.2
										l-0.5-0.4L28,8.8l-0.2,0l-0.6-0.1l-0.4-0.3l-0.5-0.1l-0.2-0.1l-0.7-0.5l-0.6-0.3l-0.4-0.5L24,7.3l-0.2-0.3L23,6.7l-0.5,0.6
										l-0.7,0.4l-0.1-0.3l-0.5,0.2l-0.4,0.1l-0.1,0l-0.3,0.1l-0.3,0L19.7,8l0,0l-0.9,0.5l-0.2-0.2l-0.4,0.2l-0.4,0.1l-0.1,0.1
										l-0.3,0.1l0.1,0.1l0.1,0.4l0,0.3l-0.1,0.3l0.2,0.5l0,0.3l0.5,0.1l0,0.1L18,10.8l0.3,0.2l-0.4-0.3l0,0l0,0.4l-0.1,0l0,0.2
										l-0.1,0.6l-0.2,0.5l-0.1,0L17,12.9l-1.3,1.3l0.1,0.1l0,0l0.1,0.4l0.6,0.1v1l-0.8,0.1l-0.2,0l-0.2,0.8l-0.7,0.5l-0.2,0
										l-0.4,0l-0.1,0l0,0l0,0l-0.2,0.1l0.2,0.4l0.5,0.6l0,0.6L14.3,19l0,0.2l-0.2,0.4l0,0.1L14,19.9l0.3,0.6l0.2,0.8l0,0.4l0,0.1
										l-0.1,0.6L14,22.8l-0.2,0.1l0,0l0.9,0.3l0.6,0.6l0.3,0.4l0.1,0l0.1-0.1l0.3-0.2l0.2,0.1l0.1-0.1l0.2-0.3l0.3-0.7l0.3-0.2
										l0.2,0l0-0.1l0.2-0.8l0.4-0.3l1.6-0.9l-0.5,1.6l-0.2,0.1l-0.1,0.1l0,0l0,0.4l0.1,0.5l0,0l0.3,0.4l0.1,0.5l-0.1,0.5L19,25
										l-0.1,0.2l0,0l-0.1,0.2l-0.1,0.2l-0.2,0.6l0,0.1l-0.2,0.6l-0.1,0.3l-0.3,0.6l-0.2,0.1l-0.2,0.2l-0.8,0.5l0,0.2l0,0l0.1,0.6
										l0,0.1l0,0.2l0,0l0.2,0.4l0.1,0.5l-0.3,0.4l-0.4,0.2l-0.1,0.1l0.3,0L16.4,32l0.2,0H17l0.7,0.5l0.1,0l0.3,0.1l0.3,0.3
										l0.7-0.2l0.4,0.2l0.2,0.2h0.1l0.3,0.2l0.2,0.3L20.2,34l0.1,0.2l0,0.2l0.7,0.8H21.1z M23.5,33.6L23.5,33.6l0.2,0L23.5,33.6
										L23.5,33.6L23.5,33.6z M19.4,33.6L19.4,33.6L19.4,33.6L19.4,33.6z M15.4,31.3L15.4,31.3L15.4,31.3l0-0.2L15.4,31.3z
										 M24.8,30.5L24.8,30.5L24.8,30.5l-0.2-0.1L24.8,30.5z M30.6,10.3l-0.1,0.3l0.1-0.1L30.6,10.3z M20.1,24.4L20.1,24.4
										l-0.7-0.8l0.3-0.2l0.7,0.8L20.1,24.4z M19.2,12L19.2,12l0-0.5l-0.3,0.4l0.3-0.4v-0.6h0.2l0.2,0.1l-0.4,0.4V12z M23.7,11
										l-0.3,0l0.2-0.6l0-0.5v0.4l0.1-0.3l-0.1,0.4V11z M24.7,9l-0.2-0.5l-0.5-0.2L24,8.2L24.4,8l0,0.1l0.7,0.8L24.9,9l-0.2-0.3
										l-0.2-0.1L24.8,9l-0.2-0.3L24.7,9z M24.5,8.6l0.2,0.1l-0.3-0.6L24.5,8.6z"/>
									<polygon class="st3" points="16.4,27.1 16,27 15.8,26.9 15.6,26.4 15.6,26.1 15.7,25.3 16,24.7 16.3,24.5 17.1,24.2 
										17.5,24.3 18,24.5 18.5,24.6 18.1,25.6 17.8,25.8 17.3,26.6 17.3,26.6 17.1,27 16.7,27 									"/>
									<polygon class="st3" points="18.2,25.3 17.5,25.2 17.4,24.6 17.8,23.7 18.3,22.7 18.7,23.6 18.8,23.7 19.1,24.2 18.7,24.8 
										18.7,25 									"/>
									<polygon class="st3" points="5.8,21.4 5.4,21.2 5.1,21 5,20.9 5,20.6 5,20.4 5.2,20.1 5.6,19.9 5.7,19.9 6.1,20 6.4,20.2 
										6.6,20.6 6.5,21 6.2,21.3 									"/>
									<polygon class="st3" points="9.6,26.3 9,26.1 8.7,25.9 8.6,25.5 8.9,25 9,24.9 9.1,24.6 9.5,24.6 10,24.2 10.5,24.1 
										10.5,24.1 11.1,23.8 11.2,24.9 10.8,25.5 9.7,26.2 									"/>
									<path class="st3" d="M3.1,26.6l-0.1,0l-0.1,0l-0.4-0.1l-0.4,0l-0.5-0.3l-0.4-0.7L1.3,25l0.4-0.5L2,24.3l0.1-0.2l0.2,0
										l-0.2-0.4l-0.4-0.3l-0.1-0.2l0-0.1L1.6,23l0-0.3l0-0.1l-0.1,0l-0.3-0.1l-0.3-0.3L0.7,22l0.1-0.4l0.4-0.3l0.1-0.6l0.5,0.2
										l0.1-0.1l0.5-0.2L2.8,21l0.3,0.5l0.2,0.1l0.2,0.6l0,0.1l0,0.2l0.2,0.3l0.4,0.3l0.2,0.1L4.4,24l0.2,0.1l0,0.1l0.2,0.2
										l0.2,0.2v0.5l-0.3,0.4l0,0.1l-0.1,0.6l-0.3-0.1l-0.2,0.3l-0.3-0.1l-0.1,0.1L3.1,26.6z M2.8,25.5L2.8,25.5L2.8,25.5l0.2,0
										l0.7-0.3l0.1-0.2L3.6,25L2.8,25.5z M2.4,25.4L2.4,25.4l0.2,0l0,0l0.1-0.2L2.4,25.4z"/>
									<polygon class="st3" points="1.8,24.4 1.2,24.3 0.7,24 0.7,23.9 0.5,23.5 0.4,23.1 0.6,22.5 1,22.5 1.2,22.5 1.8,22.4 
										1.9,22.4 2.5,22.8 2.6,23.3 2.6,23.4 2.6,24 									"/>
									<path class="st3" d="M6.2,25.6l-0.5-0.1L5,24.9L5,24.6L5.1,24l0.2-0.3L6,23.4l0,0l0.1,0l0.4-0.1l0.7,0.3l0.3,0.3l0,0.3
										l0,0.2l0,0.2l-0.1,0.1V25L6.2,25.6z M5.6,24.1L5.6,24.1l0.1,0.1L5.6,24.1z M6.9,24L6.9,24L6.9,24L6.9,24z"/>
									<polygon class="st3" points="9.2,28.1 8.8,28 7.7,27.5 8.6,26.7 9,26.7 9,26.7 9.5,26.8 9.8,27.2 9.8,27.8 									"/>
									<polygon class="st3" points="6,27.8 5.6,27.8 5.4,27.6 4.8,27.3 5.3,26.4 5.5,26.3 6,26.1 6.7,26.6 6.8,27.1 6.4,27.7 
																			"/>
									<polygon class="st3" points="5.2,23.9 4.5,23.8 4.3,23.9 3.9,23.5 3.3,23.4 4.2,22.1 4.4,22 4.5,21.8 5.6,22.4 5.8,22.6 
										7.3,23.6 5.8,23.6 5.8,23.7 5.4,23.9 									"/>
									<polygon class="st3" points="22.8,7 22.5,6.9 22.4,7 21.7,6.4 21.6,6.1 21.9,5.6 23.1,4.5 23.1,6.4 									"/>
								</g>
							</g>
						</g>
					</g>
				</g>
			</g>
		</g>
	</g>
</g>
</svg>
